<svg xmlns="http://www.w3.org/2000/svg" viewBox="0 0 512 512" role="img" aria-label="Tovek"><title>Tovek</title><rect width="512" height="512" rx="116" fill="#c6f135"/><g fill="#141513"><path d="M100 88H412a20 20 0 0 1 20 20V160a20 20 0 0 1-20 20H320V320H192V180H100a20 20 0 0 1-20-20V108a20 20 0 0 1 20-20Z"/><rect x="196" y="328" width="24" height="24" rx="5"/><rect x="228" y="328" width="24" height="24" rx="5"/><rect x="260" y="328" width="24" height="24" rx="5"/><rect x="292" y="328" width="24" height="24" rx="5"/><rect x="196" y="360" width="24" height="24" rx="5"/><rect x="260" y="360" width="24" height="24" rx="5"/><rect x="292" y="360" width="24" height="24" rx="5"/><rect x="228" y="392" width="24" height="24" rx="5"/></g></svg>
